<svg fill="none" height="25" viewBox="0 0 25 25" width="25" xmlns="http://www.w3.org/2000/svg"><path d="m12.5 25c-2.1558 0-3.90405-1.7482-3.90405-3.9041 0-2.5868-2.10507-4.6918-4.6919-4.6918-2.15581 0-3.90405-1.7483-3.90405-3.9041s1.74824-3.90405 3.90405-3.90405c2.58683 0 4.6919-2.10507 4.6919-4.6919 0-2.15581 1.74825-3.90405 3.90405-3.90405s3.9041 1.74824 3.9041 3.90405c0 2.58683 2.1042 4.6919 4.6918 4.6919 2.1559 0 3.9041 1.74825 3.9041 3.90405s-1.7482 3.9041-3.9041 3.9041c-2.5868 0-4.6918 2.1042-4.6918 4.6918 0 2.1559-1.7483 3.9041-3.9041 3.9041z" fill="#d8ee4e"/></svg>