<svg fill="none" height="46" viewBox="0 0 56 46" width="56" xmlns="http://www.w3.org/2000/svg"><path d="m19.3554 20.041c2.1233 1.0656 3.7536 2.6639 4.891 4.7951 1.2133 2.0491 1.8199 4.4672 1.8199 7.2541 0 4.0983-1.2132 7.418-3.6398 9.959-2.4265 2.541-5.5355 3.8115-9.327 3.8115-3.79146 0-6.90046-1.2705-9.327-3.8115s-3.63981-5.8607-3.63981-9.959c0-1.8853.227488-3.7705.682465-5.6558.454975-1.8852 1.478675-4.6721 3.071085-8.3606l7.27966-18.0738h13.5355zm29.801 0c2.1232 1.0656 3.7535 2.6639 4.891 4.7951 1.2133 2.0491 1.8199 4.4672 1.8199 7.2541 0 4.0983-1.2133 7.418-3.6398 9.959-2.4266 2.541-5.5356 3.8115-9.327 3.8115-3.7915 0-6.9005-1.2705-9.3271-3.8115-2.4265-2.541-3.6398-5.8607-3.6398-9.959 0-1.8853.2275-3.7705.6825-5.6558.455-1.8852 1.4787-4.6721 3.0711-8.3606l7.2796-18.0738h13.5356z" fill="#d8ee4e"/></svg>