<svg fill="none" height="500" viewBox="0 0 500 500" width="500" xmlns="http://www.w3.org/2000/svg" xmlns:xlink="http://www.w3.org/1999/xlink"><linearGradient id="a" gradientUnits="userSpaceOnUse" x1="131.012" x2="740.548" y1="139.976" y2="706.15"><stop offset="0" stop-color="#5532ae"/><stop offset="1" stop-color="#7431a5"/></linearGradient><clipPath id="b"><path d="m0 0h500v500h-500z"/></clipPath><g clip-path="url(#b)"><path d="m0 0h500v500h-500z" fill="#fff"/><path d="m0 0h1200v1200h-1200z" fill="url(#a)" transform="matrix(-1 0 0 1 1200 0)"/><path d="m130.209 122.917c-2.114 0-4.227-.807-5.841-2.419l-18.198-18.199c-3.227-3.2263-3.227-8.4567 0-11.6815l18.198-18.1989c3.226-3.2248 8.455-3.2248 11.681 0l18.198 18.1989c3.226 3.2265 3.226 8.4568 0 11.6815l-18.198 18.199c-1.612 1.612-3.725 2.419-5.84 2.419zm-6.431-26.3541 6.536 6.5361 6.535-6.5344-6.535-6.5364z" fill="#5f2998" opacity=".2"/><path d="m471.253 482.5c-6.494 0-12.982-2.476-17.939-7.427l-55.883-55.887c-9.908-9.908-9.908-25.969 0-35.872l55.883-55.887c9.908-9.903 25.964-9.903 35.871 0l55.884 55.887c9.908 9.908 9.908 25.969 0 35.872l-55.884 55.887c-4.951 4.951-11.439 7.427-17.932 7.427zm-19.749-80.929 20.07 20.072 20.069-20.067-20.069-20.072z" fill="#5f2998" opacity=".2"/><path d="m-245.354 320.196c-98.981 94.751-54.402 242.708 20.617 300.575 23.487 17.617 66.095 37.705 97.443 58.724 16.025 10.753 90.5957 80.964 130.09884 80.964 39.50316 0 90.58826-3.062 116.85016-42.083 26.261-39.022 67.04-71.599 107.168-101.006 32.089-23.487 65.571-47.306 85.392-79.807 25.056-41.596 23.946-93.906-2.85-134.402-25.661-38.625-70.811-63.48-116.216-82.965s-93.4301-35.467-133.2124-63.033c-16.9857-11.589-31.6968-25.537-57.13176-42.537-25.43494-17.001-83.59494-14.334-130.09884 22.917-46.505 37.25-45.584 33.851-76.868 52.518-6.684 3.95-25.54 15.857-41.192 30.135z" fill="#541d88"/></g></svg>